<?xml version="1.0" standalone="no"?>
<!DOCTYPE svg PUBLIC "-//W3C//DTD SVG 20010904//EN"
 "http://www.w3.org/TR/2001/REC-SVG-20010904/DTD/svg10.dtd">
<svg version="1.0" xmlns="http://www.w3.org/2000/svg"
 width="260.000000pt" height="260.000000pt" viewBox="0 0 260.000000 260.000000"
 preserveAspectRatio="xMidYMid meet">
<metadata>
Created by potrace 1.11, written by Peter Selinger 2001-2013
</metadata>
<g transform="translate(0.000000,260.000000) scale(0.100000,-0.100000)"
fill="#000000" stroke="none">
<path d="M1170 2594 c-455 -57 -831 -318 -1030 -714 -54 -108 -91 -217 -117
-340 -25 -119 -24 -363 1 -485 109 -527 505 -921 1036 -1032 117 -24 363 -24
480 0 531 111 927 505 1036 1032 25 122 26 366 1 485 -109 525 -497 920 -1012
1031 -88 19 -320 32 -395 23z m-400 -451 c45 -41 51 -98 15 -141 -44 -53 -115
-61 -162 -20 -77 71 -32 188 73 188 34 0 51 -6 74 -27z m1288 -627 c62 -267
117 -518 124 -560 20 -129 -15 -225 -109 -302 -60 -49 -133 -79 -258 -105 -87
-18 -227 -25 -259 -13 -17 7 -21 55 -10 113 l6 31 72 -6 c117 -10 285 33 344
89 13 12 30 34 38 49 19 36 17 155 -4 243 l-17 70 -22 -35 c-51 -83 -123 -128
-241 -151 -228 -44 -372 72 -458 366 -35 122 -44 286 -19 370 60 211 258 322
576 324 l126 1 111 -484z m-1088 -273 c149 -649 156 -712 87 -814 -26 -39
-115 -88 -174 -96 l-41 -5 -14 63 -14 64 36 16 c76 34 101 99 81 208 -7 36
-64 290 -127 565 -63 274 -113 501 -110 503 6 6 106 31 131 32 19 1 30 -39
145 -536z"/>
<path d="M1612 1834 c-98 -26 -152 -66 -186 -137 -35 -73 -40 -138 -22 -245
32 -184 94 -299 187 -346 61 -30 104 -32 178 -10 99 29 161 115 161 224 0 34
-104 502 -116 521 -8 14 -143 9 -202 -7z"/>
</g>
</svg>
